<mxfile host="app.diagrams.net" agent="Mozilla/5.0 (Windows NT 10.0; Win64; x64) AppleWebKit/537.36 (KHTML, like Gecko) Chrome/129.0.0.0 Safari/537.36" version="24.7.17">
  <diagram name="Trang-1" id="SkYUdIGgRq7ebbWW-lhZ">
    <mxGraphModel dx="4413" dy="5249" grid="1" gridSize="10" guides="1" tooltips="1" connect="1" arrows="1" fold="1" page="1" pageScale="1" pageWidth="3300" pageHeight="4681" math="0" shadow="0">
      <root>
        <mxCell id="0" />
        <mxCell id="1" parent="0" />
        <mxCell id="eCP-VrvmO7TKHuiMxvTa-1" value="Existing User" style="shape=umlActor;verticalLabelPosition=bottom;verticalAlign=top;html=1;" parent="1" vertex="1">
          <mxGeometry x="-170" y="155" width="30" height="60" as="geometry" />
        </mxCell>
        <mxCell id="eCP-VrvmO7TKHuiMxvTa-2" value="Guest User" style="shape=umlActor;verticalLabelPosition=bottom;verticalAlign=top;html=1;" parent="1" vertex="1">
          <mxGeometry x="-170" y="470" width="30" height="60" as="geometry" />
        </mxCell>
        <mxCell id="eCP-VrvmO7TKHuiMxvTa-6" value="Seller" style="shape=umlActor;verticalLabelPosition=bottom;verticalAlign=top;html=1;" parent="1" vertex="1">
          <mxGeometry x="1020" y="-50" width="30" height="60" as="geometry" />
        </mxCell>
        <mxCell id="eCP-VrvmO7TKHuiMxvTa-9" value="Login" style="ellipse;whiteSpace=wrap;html=1;" parent="1" vertex="1">
          <mxGeometry x="180" y="120" width="90" height="40" as="geometry" />
        </mxCell>
        <mxCell id="eCP-VrvmO7TKHuiMxvTa-13" value="" style="endArrow=open;endFill=1;endSize=12;html=1;rounded=0;exitX=1;exitY=0.3333333333333333;exitDx=0;exitDy=0;exitPerimeter=0;entryX=0.018;entryY=0.661;entryDx=0;entryDy=0;entryPerimeter=0;" parent="1" source="eCP-VrvmO7TKHuiMxvTa-1" target="eCP-VrvmO7TKHuiMxvTa-9" edge="1">
          <mxGeometry width="160" relative="1" as="geometry">
            <mxPoint x="250" y="300" as="sourcePoint" />
            <mxPoint x="410" y="300" as="targetPoint" />
          </mxGeometry>
        </mxCell>
        <mxCell id="eCP-VrvmO7TKHuiMxvTa-15" value="Show-Products" style="ellipse;whiteSpace=wrap;html=1;" parent="1" vertex="1">
          <mxGeometry x="110" y="460" width="90" height="40" as="geometry" />
        </mxCell>
        <mxCell id="eCP-VrvmO7TKHuiMxvTa-18" value="Administrator API" style="shape=umlActor;verticalLabelPosition=bottom;verticalAlign=top;html=1;" parent="1" vertex="1">
          <mxGeometry x="1020" y="187.5" width="30" height="60" as="geometry" />
        </mxCell>
        <mxCell id="eCP-VrvmO7TKHuiMxvTa-22" value="Payment service API" style="shape=umlActor;verticalLabelPosition=bottom;verticalAlign=top;html=1;" parent="1" vertex="1">
          <mxGeometry x="1020" y="380" width="30" height="60" as="geometry" />
        </mxCell>
        <mxCell id="eCP-VrvmO7TKHuiMxvTa-24" value="Logicstic service API" style="shape=umlActor;verticalLabelPosition=bottom;verticalAlign=top;html=1;" parent="1" vertex="1">
          <mxGeometry x="1020" y="530" width="30" height="60" as="geometry" />
        </mxCell>
        <mxCell id="eCP-VrvmO7TKHuiMxvTa-30" value="Signup" style="ellipse;whiteSpace=wrap;html=1;" parent="1" vertex="1">
          <mxGeometry x="110" y="585" width="90" height="40" as="geometry" />
        </mxCell>
        <mxCell id="eCP-VrvmO7TKHuiMxvTa-31" value="" style="endArrow=open;endFill=1;endSize=12;html=1;rounded=0;exitX=1;exitY=0.3333333333333333;exitDx=0;exitDy=0;exitPerimeter=0;entryX=-0.016;entryY=0.378;entryDx=0;entryDy=0;entryPerimeter=0;" parent="1" source="eCP-VrvmO7TKHuiMxvTa-2" target="eCP-VrvmO7TKHuiMxvTa-30" edge="1">
          <mxGeometry width="160" relative="1" as="geometry">
            <mxPoint x="310" y="290" as="sourcePoint" />
            <mxPoint x="470" y="290" as="targetPoint" />
          </mxGeometry>
        </mxCell>
        <mxCell id="eCP-VrvmO7TKHuiMxvTa-33" value="Verify email" style="ellipse;whiteSpace=wrap;html=1;" parent="1" vertex="1">
          <mxGeometry x="320" y="650" width="90" height="40" as="geometry" />
        </mxCell>
        <mxCell id="eCP-VrvmO7TKHuiMxvTa-35" value="&amp;lt;&amp;lt;include&amp;gt;&amp;gt;" style="endArrow=open;endSize=12;dashed=1;html=1;rounded=0;exitX=1;exitY=0.5;exitDx=0;exitDy=0;entryX=0;entryY=0.5;entryDx=0;entryDy=0;" parent="1" source="eCP-VrvmO7TKHuiMxvTa-30" target="eCP-VrvmO7TKHuiMxvTa-33" edge="1">
          <mxGeometry width="160" relative="1" as="geometry">
            <mxPoint x="310" y="290" as="sourcePoint" />
            <mxPoint x="470" y="290" as="targetPoint" />
          </mxGeometry>
        </mxCell>
        <mxCell id="eCP-VrvmO7TKHuiMxvTa-36" value="Reset-Password" style="ellipse;whiteSpace=wrap;html=1;" parent="1" vertex="1">
          <mxGeometry x="150" y="170" width="90" height="40" as="geometry" />
        </mxCell>
        <mxCell id="eCP-VrvmO7TKHuiMxvTa-37" value="" style="endArrow=open;endFill=1;endSize=12;html=1;rounded=0;exitX=1;exitY=0.3333333333333333;exitDx=0;exitDy=0;exitPerimeter=0;entryX=0;entryY=0.5;entryDx=0;entryDy=0;" parent="1" source="eCP-VrvmO7TKHuiMxvTa-1" target="eCP-VrvmO7TKHuiMxvTa-36" edge="1">
          <mxGeometry width="160" relative="1" as="geometry">
            <mxPoint x="130" y="200" as="sourcePoint" />
            <mxPoint x="212" y="106" as="targetPoint" />
          </mxGeometry>
        </mxCell>
        <mxCell id="eCP-VrvmO7TKHuiMxvTa-38" value="&amp;lt;&amp;lt;include&amp;gt;&amp;gt;" style="endArrow=open;endSize=12;dashed=1;html=1;rounded=0;exitX=1;exitY=0.5;exitDx=0;exitDy=0;entryX=0.5;entryY=0;entryDx=0;entryDy=0;" parent="1" source="eCP-VrvmO7TKHuiMxvTa-36" target="eCP-VrvmO7TKHuiMxvTa-33" edge="1">
          <mxGeometry width="160" relative="1" as="geometry">
            <mxPoint x="290" y="470" as="sourcePoint" />
            <mxPoint x="440" y="290" as="targetPoint" />
            <Array as="points">
              <mxPoint x="360" y="350" />
            </Array>
          </mxGeometry>
        </mxCell>
        <mxCell id="eCP-VrvmO7TKHuiMxvTa-39" value="" style="endArrow=open;endFill=1;endSize=12;html=1;rounded=0;entryX=0;entryY=0.5;entryDx=0;entryDy=0;exitX=1;exitY=0.3333333333333333;exitDx=0;exitDy=0;exitPerimeter=0;" parent="1" source="eCP-VrvmO7TKHuiMxvTa-2" target="eCP-VrvmO7TKHuiMxvTa-15" edge="1">
          <mxGeometry width="160" relative="1" as="geometry">
            <mxPoint x="120" y="350" as="sourcePoint" />
            <mxPoint x="210" y="170" as="targetPoint" />
          </mxGeometry>
        </mxCell>
        <mxCell id="eCP-VrvmO7TKHuiMxvTa-40" value="" style="endArrow=open;endFill=1;endSize=12;html=1;rounded=0;exitX=1;exitY=0.3333333333333333;exitDx=0;exitDy=0;exitPerimeter=0;entryX=0;entryY=0.5;entryDx=0;entryDy=0;" parent="1" source="eCP-VrvmO7TKHuiMxvTa-1" target="eCP-VrvmO7TKHuiMxvTa-15" edge="1">
          <mxGeometry width="160" relative="1" as="geometry">
            <mxPoint x="130" y="360" as="sourcePoint" />
            <mxPoint x="400" y="240" as="targetPoint" />
          </mxGeometry>
        </mxCell>
        <mxCell id="eCP-VrvmO7TKHuiMxvTa-42" value="Add-Product" style="ellipse;whiteSpace=wrap;html=1;" parent="1" vertex="1">
          <mxGeometry x="550" y="-290" width="90" height="40" as="geometry" />
        </mxCell>
        <mxCell id="eCP-VrvmO7TKHuiMxvTa-43" value="" style="endArrow=open;endFill=1;endSize=12;html=1;rounded=0;exitX=0;exitY=0.3333333333333333;exitDx=0;exitDy=0;exitPerimeter=0;entryX=1;entryY=0.5;entryDx=0;entryDy=0;" parent="1" source="eCP-VrvmO7TKHuiMxvTa-6" target="eCP-VrvmO7TKHuiMxvTa-42" edge="1">
          <mxGeometry width="160" relative="1" as="geometry">
            <mxPoint x="130" y="200" as="sourcePoint" />
            <mxPoint x="212" y="106" as="targetPoint" />
          </mxGeometry>
        </mxCell>
        <mxCell id="eCP-VrvmO7TKHuiMxvTa-44" value="Rate&amp;amp;Review" style="ellipse;whiteSpace=wrap;html=1;" parent="1" vertex="1">
          <mxGeometry x="170" y="30" width="90" height="40" as="geometry" />
        </mxCell>
        <mxCell id="eCP-VrvmO7TKHuiMxvTa-45" value="" style="endArrow=open;endFill=1;endSize=12;html=1;rounded=0;entryX=0;entryY=0.5;entryDx=0;entryDy=0;exitX=1;exitY=0.3333333333333333;exitDx=0;exitDy=0;exitPerimeter=0;" parent="1" source="eCP-VrvmO7TKHuiMxvTa-1" target="eCP-VrvmO7TKHuiMxvTa-44" edge="1">
          <mxGeometry width="160" relative="1" as="geometry">
            <mxPoint x="120" y="190" as="sourcePoint" />
            <mxPoint x="212" y="106" as="targetPoint" />
            <Array as="points" />
          </mxGeometry>
        </mxCell>
        <mxCell id="eCP-VrvmO7TKHuiMxvTa-46" value="Track-order" style="ellipse;whiteSpace=wrap;html=1;" parent="1" vertex="1">
          <mxGeometry x="422" y="280" width="90" height="40" as="geometry" />
        </mxCell>
        <mxCell id="eCP-VrvmO7TKHuiMxvTa-49" value="" style="endArrow=open;endFill=1;endSize=12;html=1;rounded=0;exitX=0.75;exitY=0.1;exitDx=0;exitDy=0;exitPerimeter=0;entryX=0;entryY=0.5;entryDx=0;entryDy=0;" parent="1" source="eCP-VrvmO7TKHuiMxvTa-1" target="eCP-VrvmO7TKHuiMxvTa-46" edge="1">
          <mxGeometry width="160" relative="1" as="geometry">
            <mxPoint x="310" y="120" as="sourcePoint" />
            <mxPoint x="470" y="120" as="targetPoint" />
          </mxGeometry>
        </mxCell>
        <mxCell id="eCP-VrvmO7TKHuiMxvTa-51" value="Manage-product-categories" style="ellipse;whiteSpace=wrap;html=1;" parent="1" vertex="1">
          <mxGeometry x="700" y="320" width="110" height="60" as="geometry" />
        </mxCell>
        <mxCell id="eCP-VrvmO7TKHuiMxvTa-52" value="" style="endArrow=open;endFill=1;endSize=12;html=1;rounded=0;exitX=0;exitY=0.3333333333333333;exitDx=0;exitDy=0;exitPerimeter=0;entryX=1;entryY=0.5;entryDx=0;entryDy=0;" parent="1" source="eCP-VrvmO7TKHuiMxvTa-18" target="eCP-VrvmO7TKHuiMxvTa-51" edge="1">
          <mxGeometry width="160" relative="1" as="geometry">
            <mxPoint x="310" y="470" as="sourcePoint" />
            <mxPoint x="470" y="470" as="targetPoint" />
          </mxGeometry>
        </mxCell>
        <mxCell id="eCP-VrvmO7TKHuiMxvTa-54" value="Active/Deactive-User-or-Seller" style="ellipse;whiteSpace=wrap;html=1;" parent="1" vertex="1">
          <mxGeometry x="780" y="90" width="125" height="50" as="geometry" />
        </mxCell>
        <mxCell id="eCP-VrvmO7TKHuiMxvTa-55" value="" style="endArrow=open;endFill=1;endSize=12;html=1;rounded=0;exitX=0;exitY=0.3333333333333333;exitDx=0;exitDy=0;exitPerimeter=0;entryX=1;entryY=0.5;entryDx=0;entryDy=0;" parent="1" source="eCP-VrvmO7TKHuiMxvTa-18" target="eCP-VrvmO7TKHuiMxvTa-54" edge="1">
          <mxGeometry width="160" relative="1" as="geometry">
            <mxPoint x="710" y="570" as="sourcePoint" />
            <mxPoint x="580" y="730" as="targetPoint" />
          </mxGeometry>
        </mxCell>
        <mxCell id="eCP-VrvmO7TKHuiMxvTa-56" value="Chat" style="ellipse;whiteSpace=wrap;html=1;" parent="1" vertex="1">
          <mxGeometry x="408" y="-80" width="102" height="50" as="geometry" />
        </mxCell>
        <mxCell id="eCP-VrvmO7TKHuiMxvTa-58" value="Sort-Product-by-Category" style="ellipse;whiteSpace=wrap;html=1;" parent="1" vertex="1">
          <mxGeometry x="150" y="220" width="90" height="40" as="geometry" />
        </mxCell>
        <mxCell id="eCP-VrvmO7TKHuiMxvTa-59" value="&amp;lt;&amp;lt;include&amp;gt;&amp;gt;" style="endArrow=open;endSize=12;dashed=1;html=1;rounded=0;exitX=0.5;exitY=0;exitDx=0;exitDy=0;entryX=0.436;entryY=1.045;entryDx=0;entryDy=0;entryPerimeter=0;" parent="1" source="eCP-VrvmO7TKHuiMxvTa-15" target="eCP-VrvmO7TKHuiMxvTa-58" edge="1">
          <mxGeometry width="160" relative="1" as="geometry">
            <mxPoint x="290" y="470" as="sourcePoint" />
            <mxPoint x="580" y="180" as="targetPoint" />
          </mxGeometry>
        </mxCell>
        <mxCell id="eCP-VrvmO7TKHuiMxvTa-60" value="" style="endArrow=open;endFill=1;endSize=12;html=1;rounded=0;entryX=0;entryY=0.5;entryDx=0;entryDy=0;exitX=1;exitY=0.3333333333333333;exitDx=0;exitDy=0;exitPerimeter=0;" parent="1" source="eCP-VrvmO7TKHuiMxvTa-1" target="eCP-VrvmO7TKHuiMxvTa-58" edge="1">
          <mxGeometry width="160" relative="1" as="geometry">
            <mxPoint x="120" y="190" as="sourcePoint" />
            <mxPoint x="230" y="310" as="targetPoint" />
          </mxGeometry>
        </mxCell>
        <mxCell id="eCP-VrvmO7TKHuiMxvTa-62" value="Show-store" style="ellipse;whiteSpace=wrap;html=1;" parent="1" vertex="1">
          <mxGeometry x="110" y="530" width="90" height="40" as="geometry" />
        </mxCell>
        <mxCell id="eCP-VrvmO7TKHuiMxvTa-63" value="" style="endArrow=open;endFill=1;endSize=12;html=1;rounded=0;exitX=1;exitY=1;exitDx=0;exitDy=0;exitPerimeter=0;entryX=0;entryY=0.5;entryDx=0;entryDy=0;" parent="1" source="eCP-VrvmO7TKHuiMxvTa-1" target="eCP-VrvmO7TKHuiMxvTa-62" edge="1">
          <mxGeometry width="160" relative="1" as="geometry">
            <mxPoint x="130" y="200" as="sourcePoint" />
            <mxPoint x="200" y="310" as="targetPoint" />
          </mxGeometry>
        </mxCell>
        <mxCell id="eCP-VrvmO7TKHuiMxvTa-64" value="" style="endArrow=open;endFill=1;endSize=12;html=1;rounded=0;entryX=0;entryY=0.5;entryDx=0;entryDy=0;exitX=1;exitY=0.3333333333333333;exitDx=0;exitDy=0;exitPerimeter=0;" parent="1" source="eCP-VrvmO7TKHuiMxvTa-2" target="eCP-VrvmO7TKHuiMxvTa-62" edge="1">
          <mxGeometry width="160" relative="1" as="geometry">
            <mxPoint x="120" y="350" as="sourcePoint" />
            <mxPoint x="200" y="310" as="targetPoint" />
          </mxGeometry>
        </mxCell>
        <mxCell id="eCP-VrvmO7TKHuiMxvTa-66" value="" style="endArrow=open;endFill=1;endSize=12;html=1;rounded=0;entryX=0.047;entryY=0.773;entryDx=0;entryDy=0;exitX=0.75;exitY=0.1;exitDx=0;exitDy=0;exitPerimeter=0;entryPerimeter=0;" parent="1" source="eCP-VrvmO7TKHuiMxvTa-2" target="eCP-VrvmO7TKHuiMxvTa-58" edge="1">
          <mxGeometry width="160" relative="1" as="geometry">
            <mxPoint x="130" y="200" as="sourcePoint" />
            <mxPoint x="220" y="220" as="targetPoint" />
          </mxGeometry>
        </mxCell>
        <mxCell id="eCP-VrvmO7TKHuiMxvTa-69" value="" style="endArrow=open;endFill=1;endSize=12;html=1;rounded=0;exitX=0.75;exitY=0.1;exitDx=0;exitDy=0;exitPerimeter=0;entryX=0;entryY=0.5;entryDx=0;entryDy=0;" parent="1" source="eCP-VrvmO7TKHuiMxvTa-1" target="eCP-VrvmO7TKHuiMxvTa-68" edge="1">
          <mxGeometry width="160" relative="1" as="geometry">
            <mxPoint x="123" y="186" as="sourcePoint" />
            <mxPoint x="240" y="-20" as="targetPoint" />
          </mxGeometry>
        </mxCell>
        <mxCell id="eCP-VrvmO7TKHuiMxvTa-70" value="" style="endArrow=open;endFill=1;endSize=12;html=1;rounded=0;exitX=0;exitY=0.3333333333333333;exitDx=0;exitDy=0;exitPerimeter=0;entryX=1;entryY=0.5;entryDx=0;entryDy=0;" parent="1" source="eCP-VrvmO7TKHuiMxvTa-6" target="eCP-VrvmO7TKHuiMxvTa-56" edge="1">
          <mxGeometry width="160" relative="1" as="geometry">
            <mxPoint x="720" y="70" as="sourcePoint" />
            <mxPoint x="595" y="-50" as="targetPoint" />
          </mxGeometry>
        </mxCell>
        <mxCell id="eCP-VrvmO7TKHuiMxvTa-71" value="" style="endArrow=open;endFill=1;endSize=12;html=1;rounded=0;exitX=1;exitY=0.3333333333333333;exitDx=0;exitDy=0;exitPerimeter=0;entryX=0;entryY=0.5;entryDx=0;entryDy=0;" parent="1" source="eCP-VrvmO7TKHuiMxvTa-1" target="eCP-VrvmO7TKHuiMxvTa-56" edge="1">
          <mxGeometry width="160" relative="1" as="geometry">
            <mxPoint x="720" y="70" as="sourcePoint" />
            <mxPoint x="480" y="95" as="targetPoint" />
            <Array as="points">
              <mxPoint x="170" y="100" />
              <mxPoint x="310" y="60" />
            </Array>
          </mxGeometry>
        </mxCell>
        <mxCell id="eCP-VrvmO7TKHuiMxvTa-73" value="Report-User/Seller" style="ellipse;whiteSpace=wrap;html=1;" parent="1" vertex="1">
          <mxGeometry x="410" y="20" width="102" height="50" as="geometry" />
        </mxCell>
        <mxCell id="eCP-VrvmO7TKHuiMxvTa-74" value="" style="endArrow=open;endFill=1;endSize=12;html=1;rounded=0;exitX=0;exitY=0.3333333333333333;exitDx=0;exitDy=0;exitPerimeter=0;entryX=1;entryY=0.5;entryDx=0;entryDy=0;" parent="1" source="eCP-VrvmO7TKHuiMxvTa-6" target="eCP-VrvmO7TKHuiMxvTa-73" edge="1">
          <mxGeometry width="160" relative="1" as="geometry">
            <mxPoint x="700" y="70" as="sourcePoint" />
            <mxPoint x="492" y="25" as="targetPoint" />
          </mxGeometry>
        </mxCell>
        <mxCell id="eCP-VrvmO7TKHuiMxvTa-75" value="" style="endArrow=open;endFill=1;endSize=12;html=1;rounded=0;exitX=0.75;exitY=0.1;exitDx=0;exitDy=0;exitPerimeter=0;entryX=0;entryY=0.5;entryDx=0;entryDy=0;" parent="1" source="eCP-VrvmO7TKHuiMxvTa-1" target="eCP-VrvmO7TKHuiMxvTa-73" edge="1">
          <mxGeometry width="160" relative="1" as="geometry">
            <mxPoint x="60" y="200" as="sourcePoint" />
            <mxPoint x="390" y="25" as="targetPoint" />
            <Array as="points">
              <mxPoint x="180" y="110" />
            </Array>
          </mxGeometry>
        </mxCell>
        <mxCell id="eCP-VrvmO7TKHuiMxvTa-76" value="&amp;lt;&amp;lt;extend&amp;gt;&amp;gt;" style="endArrow=open;endSize=12;dashed=1;html=1;rounded=0;exitX=0;exitY=0.5;exitDx=0;exitDy=0;entryX=1;entryY=1;entryDx=0;entryDy=0;" parent="1" source="eCP-VrvmO7TKHuiMxvTa-54" target="eCP-VrvmO7TKHuiMxvTa-73" edge="1">
          <mxGeometry width="160" relative="1" as="geometry">
            <mxPoint x="195" y="320" as="sourcePoint" />
            <mxPoint x="199" y="272" as="targetPoint" />
          </mxGeometry>
        </mxCell>
        <mxCell id="eCP-VrvmO7TKHuiMxvTa-77" value="&amp;lt;&amp;lt;include&amp;gt;&amp;gt;" style="endArrow=open;endSize=12;dashed=1;html=1;rounded=0;exitX=0.5;exitY=1;exitDx=0;exitDy=0;entryX=0.5;entryY=0;entryDx=0;entryDy=0;" parent="1" source="eCP-VrvmO7TKHuiMxvTa-56" target="eCP-VrvmO7TKHuiMxvTa-73" edge="1">
          <mxGeometry width="160" relative="1" as="geometry">
            <mxPoint x="252" y="208" as="sourcePoint" />
            <mxPoint x="378" y="450" as="targetPoint" />
          </mxGeometry>
        </mxCell>
        <mxCell id="eCP-VrvmO7TKHuiMxvTa-79" value="Update-User-Info" style="ellipse;whiteSpace=wrap;html=1;" parent="1" vertex="1">
          <mxGeometry x="380" y="197.5" width="90" height="40" as="geometry" />
        </mxCell>
        <mxCell id="eCP-VrvmO7TKHuiMxvTa-80" value="&amp;lt;&amp;lt;include&amp;gt;&amp;gt;" style="endArrow=open;endSize=12;dashed=1;html=1;rounded=0;exitX=1;exitY=0.5;exitDx=0;exitDy=0;entryX=0;entryY=0.5;entryDx=0;entryDy=0;" parent="1" source="eCP-VrvmO7TKHuiMxvTa-9" target="eCP-VrvmO7TKHuiMxvTa-79" edge="1">
          <mxGeometry width="160" relative="1" as="geometry">
            <mxPoint x="252" y="208" as="sourcePoint" />
            <mxPoint x="378" y="450" as="targetPoint" />
          </mxGeometry>
        </mxCell>
        <mxCell id="eCP-VrvmO7TKHuiMxvTa-82" value="" style="endArrow=open;endFill=1;endSize=12;html=1;rounded=0;entryX=0;entryY=0.5;entryDx=0;entryDy=0;exitX=1;exitY=0.3333333333333333;exitDx=0;exitDy=0;exitPerimeter=0;" parent="1" source="eCP-VrvmO7TKHuiMxvTa-1" target="eCP-VrvmO7TKHuiMxvTa-79" edge="1">
          <mxGeometry width="160" relative="1" as="geometry">
            <mxPoint x="60" y="200" as="sourcePoint" />
            <mxPoint x="160" y="250" as="targetPoint" />
            <Array as="points">
              <mxPoint x="170" y="290" />
            </Array>
          </mxGeometry>
        </mxCell>
        <mxCell id="eCP-VrvmO7TKHuiMxvTa-68" value="Edit-cart" style="ellipse;whiteSpace=wrap;html=1;" parent="1" vertex="1">
          <mxGeometry x="210" y="320" width="90" height="40" as="geometry" />
        </mxCell>
        <mxCell id="eCP-VrvmO7TKHuiMxvTa-86" value="Manage-Payment-Services" style="ellipse;whiteSpace=wrap;html=1;" parent="1" vertex="1">
          <mxGeometry x="710" y="170" width="125" height="50" as="geometry" />
        </mxCell>
        <mxCell id="eCP-VrvmO7TKHuiMxvTa-87" value="Manage-Logicstic-Services" style="ellipse;whiteSpace=wrap;html=1;" parent="1" vertex="1">
          <mxGeometry x="700" y="247.5" width="125" height="50" as="geometry" />
        </mxCell>
        <mxCell id="eCP-VrvmO7TKHuiMxvTa-88" value="" style="endArrow=open;endFill=1;endSize=12;html=1;rounded=0;exitX=0;exitY=0.3333333333333333;exitDx=0;exitDy=0;exitPerimeter=0;entryX=1;entryY=0.5;entryDx=0;entryDy=0;" parent="1" source="eCP-VrvmO7TKHuiMxvTa-18" target="eCP-VrvmO7TKHuiMxvTa-86" edge="1">
          <mxGeometry width="160" relative="1" as="geometry">
            <mxPoint x="750" y="670" as="sourcePoint" />
            <mxPoint x="578" y="565" as="targetPoint" />
          </mxGeometry>
        </mxCell>
        <mxCell id="eCP-VrvmO7TKHuiMxvTa-89" value="" style="endArrow=open;endFill=1;endSize=12;html=1;rounded=0;exitX=0;exitY=0.3333333333333333;exitDx=0;exitDy=0;exitPerimeter=0;entryX=1;entryY=0.5;entryDx=0;entryDy=0;" parent="1" source="eCP-VrvmO7TKHuiMxvTa-18" target="eCP-VrvmO7TKHuiMxvTa-87" edge="1">
          <mxGeometry width="160" relative="1" as="geometry">
            <mxPoint x="750" y="670" as="sourcePoint" />
            <mxPoint x="578" y="625" as="targetPoint" />
          </mxGeometry>
        </mxCell>
        <mxCell id="eCP-VrvmO7TKHuiMxvTa-90" value="Allow-Logicstics-Services" style="ellipse;whiteSpace=wrap;html=1;" parent="1" vertex="1">
          <mxGeometry x="640" y="-340" width="110" height="50" as="geometry" />
        </mxCell>
        <mxCell id="eCP-VrvmO7TKHuiMxvTa-91" value="" style="endArrow=open;endFill=1;endSize=12;html=1;rounded=0;exitX=0;exitY=0.3333333333333333;exitDx=0;exitDy=0;exitPerimeter=0;entryX=0.911;entryY=0.852;entryDx=0;entryDy=0;entryPerimeter=0;" parent="1" source="eCP-VrvmO7TKHuiMxvTa-6" target="eCP-VrvmO7TKHuiMxvTa-90" edge="1">
          <mxGeometry width="160" relative="1" as="geometry">
            <mxPoint x="760" y="15" as="sourcePoint" />
            <mxPoint x="492" y="115" as="targetPoint" />
          </mxGeometry>
        </mxCell>
        <mxCell id="eCP-VrvmO7TKHuiMxvTa-92" value="Update-Product" style="ellipse;whiteSpace=wrap;html=1;" parent="1" vertex="1">
          <mxGeometry x="550" y="-210" width="90" height="40" as="geometry" />
        </mxCell>
        <mxCell id="eCP-VrvmO7TKHuiMxvTa-93" value="&amp;lt;&amp;lt;include&amp;gt;&amp;gt;" style="endArrow=open;endSize=12;dashed=1;html=1;rounded=0;exitX=0.5;exitY=0;exitDx=0;exitDy=0;entryX=0.5;entryY=1;entryDx=0;entryDy=0;" parent="1" source="eCP-VrvmO7TKHuiMxvTa-92" target="eCP-VrvmO7TKHuiMxvTa-42" edge="1">
          <mxGeometry width="160" relative="1" as="geometry">
            <mxPoint x="415" y="50" as="sourcePoint" />
            <mxPoint x="441" y="90" as="targetPoint" />
          </mxGeometry>
        </mxCell>
        <mxCell id="eCP-VrvmO7TKHuiMxvTa-94" value="" style="endArrow=open;endFill=1;endSize=12;html=1;rounded=0;exitX=0;exitY=0.3333333333333333;exitDx=0;exitDy=0;exitPerimeter=0;entryX=1;entryY=0.5;entryDx=0;entryDy=0;" parent="1" source="eCP-VrvmO7TKHuiMxvTa-6" target="eCP-VrvmO7TKHuiMxvTa-92" edge="1">
          <mxGeometry width="160" relative="1" as="geometry">
            <mxPoint x="760" y="15" as="sourcePoint" />
            <mxPoint x="550" y="-160" as="targetPoint" />
          </mxGeometry>
        </mxCell>
        <mxCell id="eCP-VrvmO7TKHuiMxvTa-96" value="Make-Order" style="ellipse;whiteSpace=wrap;html=1;" parent="1" vertex="1">
          <mxGeometry x="230" y="460" width="90" height="40" as="geometry" />
        </mxCell>
        <mxCell id="eCP-VrvmO7TKHuiMxvTa-97" value="Enter-payment-methods &amp;amp; Checkout" style="ellipse;whiteSpace=wrap;html=1;" parent="1" vertex="1">
          <mxGeometry x="470" y="510" width="130" height="80" as="geometry" />
        </mxCell>
        <mxCell id="eCP-VrvmO7TKHuiMxvTa-100" value="&amp;lt;&amp;lt;include&amp;gt;&amp;gt;" style="endArrow=open;endSize=12;dashed=1;html=1;rounded=0;exitX=0.5;exitY=1;exitDx=0;exitDy=0;entryX=0;entryY=0;entryDx=0;entryDy=0;" parent="1" source="eCP-VrvmO7TKHuiMxvTa-68" target="eCP-VrvmO7TKHuiMxvTa-96" edge="1">
          <mxGeometry width="160" relative="1" as="geometry">
            <mxPoint x="165" y="470" as="sourcePoint" />
            <mxPoint x="199" y="272" as="targetPoint" />
          </mxGeometry>
        </mxCell>
        <mxCell id="eCP-VrvmO7TKHuiMxvTa-101" value="&amp;lt;&amp;lt;extend&amp;gt;&amp;gt;" style="endArrow=open;endSize=12;dashed=1;html=1;rounded=0;exitX=1;exitY=0.5;exitDx=0;exitDy=0;" parent="1" source="eCP-VrvmO7TKHuiMxvTa-96" target="eCP-VrvmO7TKHuiMxvTa-97" edge="1">
          <mxGeometry width="160" relative="1" as="geometry">
            <mxPoint x="620" y="165" as="sourcePoint" />
            <mxPoint x="430" y="520" as="targetPoint" />
          </mxGeometry>
        </mxCell>
        <mxCell id="eCP-VrvmO7TKHuiMxvTa-104" value="Verify-Payment" style="ellipse;whiteSpace=wrap;html=1;" parent="1" vertex="1">
          <mxGeometry x="730" y="410" width="110" height="50" as="geometry" />
        </mxCell>
        <mxCell id="eCP-VrvmO7TKHuiMxvTa-105" value="" style="endArrow=open;endFill=1;endSize=12;html=1;rounded=0;entryX=1;entryY=0.5;entryDx=0;entryDy=0;exitX=0;exitY=0.3333333333333333;exitDx=0;exitDy=0;exitPerimeter=0;" parent="1" source="eCP-VrvmO7TKHuiMxvTa-22" target="eCP-VrvmO7TKHuiMxvTa-104" edge="1">
          <mxGeometry width="160" relative="1" as="geometry">
            <mxPoint x="890" y="400" as="sourcePoint" />
            <mxPoint x="738" y="330" as="targetPoint" />
          </mxGeometry>
        </mxCell>
        <mxCell id="eCP-VrvmO7TKHuiMxvTa-107" value="&amp;lt;&amp;lt;extend&amp;gt;&amp;gt;" style="endArrow=open;endSize=12;dashed=1;html=1;rounded=0;exitX=0;exitY=0.5;exitDx=0;exitDy=0;entryX=1;entryY=0;entryDx=0;entryDy=0;" parent="1" source="eCP-VrvmO7TKHuiMxvTa-104" target="eCP-VrvmO7TKHuiMxvTa-97" edge="1">
          <mxGeometry width="160" relative="1" as="geometry">
            <mxPoint x="360" y="460" as="sourcePoint" />
            <mxPoint x="468" y="427" as="targetPoint" />
          </mxGeometry>
        </mxCell>
        <mxCell id="eCP-VrvmO7TKHuiMxvTa-112" value="Update-Store-Info" style="ellipse;whiteSpace=wrap;html=1;" parent="1" vertex="1">
          <mxGeometry x="544" y="-150" width="90" height="50" as="geometry" />
        </mxCell>
        <mxCell id="eCP-VrvmO7TKHuiMxvTa-113" value="" style="endArrow=open;endFill=1;endSize=12;html=1;rounded=0;exitX=0;exitY=0.3333333333333333;exitDx=0;exitDy=0;exitPerimeter=0;entryX=1;entryY=0.5;entryDx=0;entryDy=0;" parent="1" source="eCP-VrvmO7TKHuiMxvTa-6" target="eCP-VrvmO7TKHuiMxvTa-112" edge="1">
          <mxGeometry width="160" relative="1" as="geometry">
            <mxPoint x="790" y="-10" as="sourcePoint" />
            <mxPoint x="630" y="-160" as="targetPoint" />
          </mxGeometry>
        </mxCell>
        <mxCell id="eCP-VrvmO7TKHuiMxvTa-128" value="" style="endArrow=open;endFill=1;endSize=12;html=1;rounded=0;entryX=1;entryY=0.5;entryDx=0;entryDy=0;exitX=0;exitY=0.3333333333333333;exitDx=0;exitDy=0;exitPerimeter=0;" parent="1" source="eCP-VrvmO7TKHuiMxvTa-24" target="yUG__G-NnpQ9U3A9nIch-1" edge="1">
          <mxGeometry width="160" relative="1" as="geometry">
            <mxPoint x="1030" y="410" as="sourcePoint" />
            <mxPoint x="870" y="535" as="targetPoint" />
          </mxGeometry>
        </mxCell>
        <mxCell id="eCP-VrvmO7TKHuiMxvTa-130" value="Create-track-shipping" style="ellipse;whiteSpace=wrap;html=1;" parent="1" vertex="1">
          <mxGeometry x="750" y="650" width="135" height="50" as="geometry" />
        </mxCell>
        <mxCell id="eCP-VrvmO7TKHuiMxvTa-131" value="" style="endArrow=open;endFill=1;endSize=12;html=1;rounded=0;entryX=1;entryY=0.5;entryDx=0;entryDy=0;exitX=0;exitY=0.3333333333333333;exitDx=0;exitDy=0;exitPerimeter=0;" parent="1" source="eCP-VrvmO7TKHuiMxvTa-24" target="eCP-VrvmO7TKHuiMxvTa-130" edge="1">
          <mxGeometry width="160" relative="1" as="geometry">
            <mxPoint x="1030" y="560" as="sourcePoint" />
            <mxPoint x="885" y="525" as="targetPoint" />
          </mxGeometry>
        </mxCell>
        <mxCell id="eCP-VrvmO7TKHuiMxvTa-132" value="Track-Shipping" style="ellipse;whiteSpace=wrap;html=1;" parent="1" vertex="1">
          <mxGeometry x="750" y="-390" width="110" height="50" as="geometry" />
        </mxCell>
        <mxCell id="eCP-VrvmO7TKHuiMxvTa-133" value="" style="endArrow=open;endFill=1;endSize=12;html=1;rounded=0;exitX=0.5;exitY=0;exitDx=0;exitDy=0;exitPerimeter=0;entryX=0.652;entryY=0.927;entryDx=0;entryDy=0;entryPerimeter=0;" parent="1" source="eCP-VrvmO7TKHuiMxvTa-6" target="eCP-VrvmO7TKHuiMxvTa-132" edge="1">
          <mxGeometry width="160" relative="1" as="geometry">
            <mxPoint x="1030" y="-20" as="sourcePoint" />
            <mxPoint x="750" y="-287" as="targetPoint" />
          </mxGeometry>
        </mxCell>
        <mxCell id="yUG__G-NnpQ9U3A9nIch-1" value="Create-time-pick-product" style="ellipse;whiteSpace=wrap;html=1;" vertex="1" parent="1">
          <mxGeometry x="750" y="505" width="120" height="80" as="geometry" />
        </mxCell>
      </root>
    </mxGraphModel>
  </diagram>
</mxfile>
